<?xml version="1.0" standalone="no"?>
<!DOCTYPE svg PUBLIC "-//W3C//DTD SVG 20010904//EN"
 "http://www.w3.org/TR/2001/REC-SVG-20010904/DTD/svg10.dtd">
<svg version="1.0" xmlns="http://www.w3.org/2000/svg"
 width="128.000000pt" height="128.000000pt" viewBox="0 0 128.000000 128.000000"
 preserveAspectRatio="xMidYMid meet">
<metadata>
Created by potrace 1.14, written by Peter Selinger 2001-2017
</metadata>
<g transform="translate(0.000000,128.000000) scale(0.100000,-0.100000)"
fill="#000000" stroke="none">
<path d="M562 1178 c-7 -7 -12 -16 -12 -21 0 -5 32 -42 72 -83 l71 -74 77 0
77 0 71 74 c40 41 72 78 72 83 0 12 -21 33 -33 33 -5 0 -49 -39 -98 -87 l-89
-87 -89 87 c-49 48 -93 87 -98 87 -5 0 -14 -5 -21 -12z"/>
<path d="M212 948 c-17 -17 -17 -559 0 -576 17 -17 839 -17 856 0 17 17 17
559 0 576 -17 17 -839 17 -856 0z m743 -288 l0 -215 -315 0 -315 0 -3 205 c-1
112 0 210 3 217 3 11 69 13 317 11 l313 -3 0 -215z"/>
</g>
</svg>
